<svg width="24" height="24" viewBox="0 0 24 24" fill="none" xmlns="http://www.w3.org/2000/svg">
<rect width="24" height="24" rx="12" fill="#E11923"/>
<path d="M15.4434 5.00488C17.4246 5.10551 19 6.74378 19 8.75V15.25C19 17.3211 17.3211 19 15.25 19H8.75C6.74378 19 5.10551 17.4246 5.00488 15.4434L5 15.25V8.75C5 6.67893 6.67893 5 8.75 5H15.25L15.4434 5.00488ZM12.5049 8.75684C11.8288 8.65668 11.1369 8.77213 10.5303 9.08691C9.92389 9.40175 9.43223 9.90046 9.125 10.5107C8.81781 11.1212 8.70986 11.8136 8.81836 12.4883C8.92695 13.1628 9.2465 13.7863 9.72949 14.2695C10.2127 14.7527 10.837 15.072 11.5117 15.1807C12.1864 15.2891 12.8789 15.1821 13.4893 14.875C14.0995 14.5678 14.5973 14.0751 14.9121 13.4688C15.2268 12.8621 15.3424 12.1712 15.2422 11.4951C15.1399 10.8056 14.8191 10.1668 14.3262 9.67383C13.8332 9.18097 13.1944 8.85918 12.5049 8.75684ZM16 7C15.4479 7.0002 15 7.44784 15 8C15 8.55216 15.4479 8.9998 16 9H16.0137C16.5655 8.99943 17.0137 8.55194 17.0137 8C17.0137 7.44806 16.5655 7.00057 16.0137 7H16Z" fill="#FFFFF5"/>
<path d="M11.1642 10.3076C11.5142 10.1259 11.9129 10.059 12.303 10.1168C12.7009 10.1758 13.0694 10.3616 13.3538 10.646C13.6383 10.9305 13.8235 11.2989 13.8825 11.6969C13.9403 12.0869 13.8738 12.4851 13.6923 12.8351C13.5107 13.1851 13.2234 13.4694 12.8712 13.6467C12.5189 13.824 12.1194 13.8853 11.73 13.8227C11.3407 13.76 10.9811 13.5764 10.7023 13.2976C10.4234 13.0187 10.2392 12.6591 10.1765 12.2698C10.1139 11.8804 10.1758 11.4809 10.3532 11.1286C10.5304 10.7765 10.8142 10.4892 11.1642 10.3076Z" fill="#FFFFF5"/>
</svg>
