<svg width="24" height="24" viewBox="0 0 24 24" fill="none" xmlns="http://www.w3.org/2000/svg">
<path d="M7.10993 0.999905C7.83439 0.995131 8.53604 1.25298 9.08552 1.72549C9.56839 2.14076 9.90551 2.69698 10.0504 3.3124L10.1002 3.57998L10.1011 3.58877C10.2178 4.47337 10.4339 5.34261 10.7457 6.17862L10.814 6.38174C10.9559 6.86069 10.9763 7.36853 10.8716 7.85928C10.752 8.42016 10.4741 8.93487 10.0709 9.34268L10.067 9.34756L9.35114 10.0624C10.527 11.9073 12.0923 13.4714 13.9371 14.6474L14.6568 13.9286C15.0646 13.5255 15.5794 13.2475 16.1402 13.1278C16.7001 13.0084 17.2828 13.052 17.8189 13.2528C18.6555 13.565 19.5254 13.7816 20.4107 13.8983L20.4195 13.8993C21.1481 14.0021 21.8139 14.3693 22.2896 14.9306C22.7599 15.4857 23.0106 16.193 22.9986 16.9198L22.9996 19.9159C23.0013 20.3336 22.9159 20.747 22.7486 21.1298C22.5812 21.5126 22.3357 21.8562 22.0279 22.1386C21.7201 22.4209 21.3571 22.6366 20.9615 22.7704C20.5658 22.9042 20.1461 22.9535 19.73 22.9159C19.724 22.9154 19.7175 22.9146 19.7115 22.914C16.4791 22.5627 13.3741 21.4584 10.6461 19.6894C8.10957 18.0759 5.95862 15.9239 4.34626 13.3866C2.57384 10.648 1.47011 7.53002 1.12556 4.28604C1.12502 4.28096 1.12406 4.27549 1.1236 4.27041C1.08613 3.85572 1.13625 3.43749 1.26911 3.04287C1.40204 2.6482 1.61531 2.28503 1.89606 1.97744C2.17686 1.66984 2.51899 1.42405 2.89997 1.25576C3.28086 1.08755 3.69257 1.00031 4.10895 0.999905H7.10993ZM4.11091 2.9999C3.97209 3.00004 3.83457 3.02878 3.70759 3.08487C3.58062 3.14096 3.46718 3.22356 3.3736 3.32608C3.28009 3.42852 3.20894 3.54914 3.16462 3.68057C3.122 3.80711 3.10492 3.94108 3.11481 4.07412L3.18122 4.62295C3.52876 7.17771 4.39835 9.63359 5.73591 11.8378L6.02888 12.3065L6.03376 12.3134C7.49031 14.6056 9.43398 16.5492 11.7261 18.0058L11.734 18.0106C14.1954 19.6069 16.9965 20.6044 19.9127 20.9237C20.0505 20.9358 20.1898 20.9202 20.3209 20.8759C20.4527 20.8313 20.5738 20.759 20.6763 20.6649C20.7788 20.5709 20.8608 20.4565 20.9166 20.329C20.9724 20.2014 21.0001 20.063 20.9996 19.9237V16.9198C20.9996 16.9117 21.0004 16.9036 21.0006 16.8954C21.0066 16.6502 20.9218 16.4107 20.7633 16.2235C20.6066 16.0388 20.3883 15.9166 20.149 15.8808C19.1143 15.7443 18.0984 15.4917 17.1207 15.1269L17.1177 15.1259C16.9391 15.0588 16.7449 15.0442 16.5582 15.0839C16.3712 15.1238 16.199 15.217 16.0631 15.3515L14.7974 16.6171C14.4791 16.9354 13.9866 17.0017 13.5953 16.7792C10.9354 15.2667 8.73274 13.0641 7.22028 10.4042C6.99794 10.0129 7.06512 9.52127 7.38337 9.20303L8.64802 7.93643C8.78244 7.8005 8.87571 7.62925 8.91559 7.44229C8.95547 7.2553 8.94087 7.0607 8.8736 6.88174L8.87263 6.87979C8.50882 5.90484 8.25647 4.89182 8.1197 3.86026L8.10309 3.77041C8.05479 3.56551 7.94255 3.38042 7.78181 3.24209C7.59782 3.08387 7.36235 2.99752 7.1197 2.9999H4.11091Z" fill="#E11923"/>
</svg>
