<svg width="24" height="24" viewBox="0 0 24 24" fill="none" xmlns="http://www.w3.org/2000/svg">
<rect x="0.5" y="0.5" width="23" height="23" rx="11.5" fill="#FFF5F5"/>
<rect x="0.5" y="0.5" width="23" height="23" rx="11.5" stroke="#F9CDCF"/>
<path d="M18.543 15.197V17.154C18.5437 17.3357 18.5065 17.5155 18.4337 17.682C18.3609 17.8485 18.2542 17.9979 18.1203 18.1207C17.9864 18.2435 17.8284 18.337 17.6563 18.3952C17.4842 18.4535 17.3018 18.4751 17.1209 18.4587C15.1135 18.2406 13.1853 17.5547 11.4912 16.456C9.91499 15.4545 8.57868 14.1181 7.57711 12.542C6.47464 10.8402 5.78855 8.90256 5.57442 6.88618C5.55812 6.70578 5.57956 6.52397 5.63738 6.35232C5.69519 6.18066 5.78811 6.02293 5.91023 5.88915C6.03234 5.75538 6.18098 5.6485 6.34666 5.57531C6.51235 5.50213 6.69146 5.46424 6.87258 5.46407H8.82961C9.14619 5.46096 9.45311 5.57307 9.69315 5.7795C9.9332 5.98594 10.09 6.27262 10.1343 6.5861C10.2169 7.21239 10.3701 7.82733 10.5909 8.41918C10.6787 8.65267 10.6977 8.90642 10.6457 9.15038C10.5936 9.39433 10.4728 9.61826 10.2974 9.79562L9.4689 10.6241C10.3975 12.2573 11.7498 13.6095 13.383 14.5381L14.2114 13.7097C14.3888 13.5343 14.6127 13.4134 14.8567 13.3614C15.1006 13.3094 15.3544 13.3283 15.5879 13.4161C16.1797 13.637 16.7947 13.7902 17.4209 13.8728C17.7378 13.9175 18.0272 14.0771 18.2341 14.3212C18.441 14.5654 18.5509 14.8771 18.543 15.197Z" fill="#E11923"/>
</svg>
