<svg width="24" height="24" viewBox="0 0 24 24" fill="none" xmlns="http://www.w3.org/2000/svg">
<rect width="24" height="24" rx="12" fill="#E11923"/>
<path d="M18.5558 15.2034V17.1643C18.5566 17.3464 18.5193 17.5266 18.4464 17.6934C18.3734 17.8601 18.2665 18.0099 18.1323 18.1329C17.9982 18.256 17.8398 18.3497 17.6674 18.408C17.4949 18.4663 17.3122 18.488 17.1309 18.4716C15.1196 18.2531 13.1875 17.5658 11.49 16.4649C9.91074 15.4614 8.57177 14.1224 7.56822 12.5431C6.46356 10.8379 5.77611 8.89648 5.56156 6.87609C5.54522 6.69534 5.5667 6.51317 5.62463 6.34117C5.68256 6.16918 5.77567 6.01113 5.89803 5.87709C6.02038 5.74305 6.16931 5.63596 6.33533 5.56263C6.50134 5.4893 6.68081 5.45134 6.86229 5.45117H8.8232C9.14042 5.44804 9.44794 5.56038 9.68846 5.76722C9.92898 5.97407 10.0861 6.26131 10.1305 6.57542C10.2132 7.20296 10.3667 7.81911 10.588 8.41214C10.676 8.64609 10.695 8.90035 10.6429 9.14479C10.5907 9.38923 10.4696 9.6136 10.2939 9.79131L9.46377 10.6214C10.3943 12.2578 11.7492 13.6128 13.3856 14.5432L14.2157 13.7131C14.3934 13.5374 14.6178 13.4163 14.8622 13.3642C15.1067 13.312 15.3609 13.3311 15.5949 13.419C16.1879 13.6403 16.8041 13.7938 17.4316 13.8765C17.7491 13.9213 18.0391 14.0813 18.2464 14.3259C18.4537 14.5706 18.5638 14.8829 18.5558 15.2034Z" stroke="#FFFFF5" stroke-width="1.00199" stroke-linecap="round" stroke-linejoin="round"/>
</svg>
