<svg width="24" height="24" viewBox="0 0 24 24" fill="none" xmlns="http://www.w3.org/2000/svg">
<rect width="24" height="24" rx="12" fill="#E11923"/>
<path d="M11.9996 6.81152C11.9996 6.81152 16.3775 6.81092 17.4723 7.07812C17.7718 7.16285 18.0437 7.32546 18.2604 7.54883C18.4771 7.77229 18.6311 8.04957 18.7067 8.35156C18.9085 9.47054 19.0068 10.6062 18.9996 11.7432C19.0036 12.863 18.9054 13.9809 18.7067 15.083C18.6311 15.385 18.4771 15.6623 18.2604 15.8857C18.0437 16.1091 17.7718 16.2717 17.4723 16.3564C16.3774 16.6491 11.9996 16.6484 11.9996 16.6484C11.9542 16.6484 7.61746 16.6475 6.52796 16.3564C6.2345 16.2761 5.96589 16.1212 5.74964 15.9072C5.53355 15.6933 5.37594 15.4272 5.29261 15.1348C5.09077 14.0158 4.9935 12.8802 5.00062 11.7432C4.99504 10.6147 5.09236 9.48755 5.29261 8.37695C5.36818 8.07502 5.52222 7.79765 5.7389 7.57422C5.95565 7.35076 6.22841 7.18827 6.52796 7.10352C7.61748 6.81246 11.9542 6.81153 11.9996 6.81152ZM10.8151 9.22754C10.6605 9.13971 10.4708 9.14029 10.317 9.22949C10.1633 9.31905 10.068 9.48416 10.068 9.66211V13.8232C10.0681 14.0012 10.1632 14.1663 10.317 14.2559C10.4707 14.3451 10.6605 14.3464 10.8151 14.2588L14.4742 12.1777C14.6304 12.0889 14.727 11.9228 14.7272 11.7432C14.7272 11.5635 14.6304 11.3975 14.4742 11.3086L10.8151 9.22754Z" fill="#FFFFF5"/>
</svg>
