<svg width="24" height="24" viewBox="0 0 24 24" fill="none" xmlns="http://www.w3.org/2000/svg">
<rect width="24" height="24" rx="12" fill="#E11923"/>
<path d="M18.7069 8.35109C18.6313 8.04909 18.4774 7.77239 18.2606 7.54893C18.0439 7.32547 17.772 7.16317 17.4724 7.07842C16.378 6.81116 12 6.81116 12 6.81116C12 6.81116 7.62205 6.81116 6.52756 7.10388C6.228 7.18863 5.95612 7.35093 5.73936 7.57438C5.52261 7.79784 5.36866 8.07454 5.29308 8.37654C5.09277 9.48729 4.99479 10.6141 5.00036 11.7427C4.99322 12.8799 5.09121 14.0153 5.29308 15.1344C5.37641 15.427 5.5338 15.6932 5.75005 15.9072C5.9663 16.1212 6.23409 16.2758 6.52756 16.3561C7.62205 16.6488 12 16.6488 12 16.6488C12 16.6488 16.378 16.6488 17.4724 16.3561C17.772 16.2714 18.0439 16.1091 18.2606 15.8856C18.4774 15.6622 18.6313 15.3855 18.7069 15.0835C18.9057 13.9811 19.0037 12.8629 18.9996 11.7427C19.0068 10.6056 18.9088 9.4702 18.7069 8.35109Z" stroke="#FFFFF5" stroke-linecap="round" stroke-linejoin="round"/>
<path d="M10.5682 13.8235L14.2272 11.7427L10.5682 9.66193V13.8235Z" stroke="#FFFFF5" stroke-linecap="round" stroke-linejoin="round"/>
</svg>
