<svg width="24" height="24" viewBox="0 0 24 24" fill="none" xmlns="http://www.w3.org/2000/svg">
<rect width="24" height="24" rx="12" fill="#E11923"/>
<path d="M15.25 5.5H8.75C6.95507 5.5 5.5 6.95507 5.5 8.75V15.25C5.5 17.0449 6.95507 18.5 8.75 18.5H15.25C17.0449 18.5 18.5 17.0449 18.5 15.25V8.75C18.5 6.95507 17.0449 5.5 15.25 5.5Z" stroke="#FFFFF5" stroke-linecap="round" stroke-linejoin="round"/>
<path d="M14.6 11.5905C14.6802 12.1315 14.5878 12.6839 14.3359 13.1694C14.0841 13.6548 13.6855 14.0484 13.1971 14.2943C12.7086 14.5402 12.155 14.6257 11.6151 14.5389C11.0751 14.452 10.5763 14.1971 10.1896 13.8104C9.80294 13.4237 9.54802 12.9249 9.46114 12.3849C9.37426 11.845 9.45984 11.2914 9.70571 10.8029C9.95158 10.3145 10.3452 9.91593 10.8306 9.66405C11.3161 9.41218 11.8685 9.31978 12.4095 9.4C12.9613 9.48182 13.4721 9.73895 13.8666 10.1334C14.261 10.5278 14.5182 11.0387 14.6 11.5905Z" stroke="#FFFFF5" stroke-linecap="round" stroke-linejoin="round"/>
<path d="M15.575 8.425H15.5815" stroke="#FFFFF5" stroke-linecap="round" stroke-linejoin="round"/>
</svg>
