<svg width="24" height="24" viewBox="0 0 24 24" fill="none" xmlns="http://www.w3.org/2000/svg">
<rect x="0.5" y="0.5" width="23" height="23" rx="11.5" fill="#FFF5F5"/>
<rect x="0.5" y="0.5" width="23" height="23" rx="11.5" stroke="#F9CDCF"/>
<path d="M15.5 5H8.5C6.567 5 5 6.567 5 8.5V15.5C5 17.433 6.567 19 8.5 19H15.5C17.433 19 19 17.433 19 15.5V8.5C19 6.567 17.433 5 15.5 5Z" fill="#E11923"/>
<path d="M14.8 11.559C14.8864 12.1416 14.7869 12.7366 14.5156 13.2593C14.2444 13.7821 13.8152 14.206 13.2891 14.4708C12.7631 14.7356 12.1669 14.8277 11.5855 14.7342C11.004 14.6406 10.4668 14.3661 10.0504 13.9496C9.63394 13.5332 9.35941 12.996 9.26585 12.4146C9.17228 11.8331 9.26445 11.2369 9.52923 10.7109C9.79401 10.1848 10.2179 9.75562 10.7407 9.48437C11.2635 9.21312 11.8584 9.11361 12.441 9.2C13.0352 9.28812 13.5854 9.56503 14.0102 9.98982C14.435 10.4146 14.7119 10.9648 14.8 11.559Z" fill="#E11923" stroke="#F9CDCF" stroke-width="1.5" stroke-linecap="round" stroke-linejoin="round"/>
<path d="M16.0098 7C16.5621 7 17.0098 7.44772 17.0098 8C17.0098 8.55228 16.5621 9 16.0098 9H16C15.4477 9 15 8.55228 15 8C15 7.44772 15.4477 7 16 7H16.0098Z" fill="#F9CDCF"/>
</svg>
