<svg width="24" height="24" viewBox="0 0 24 24" fill="none" xmlns="http://www.w3.org/2000/svg">
<rect x="0.5" y="0.5" width="23" height="23" rx="11.5" fill="#FFF5F5"/>
<rect x="0.5" y="0.5" width="23" height="23" rx="11.5" stroke="#F9CDCF"/>
<path d="M14.5263 9.28947C15.5313 9.28947 16.4952 9.68872 17.2059 10.3994C17.9165 11.1101 18.3158 12.0739 18.3158 13.0789V17.5H15.7895V13.0789C15.7895 12.7439 15.6564 12.4226 15.4195 12.1858C15.1826 11.9489 14.8613 11.8158 14.5263 11.8158C14.1913 11.8158 13.87 11.9489 13.6331 12.1858C13.3962 12.4226 13.2632 12.7439 13.2632 13.0789V17.5H10.7368V13.0789C10.7368 12.0739 11.1361 11.1101 11.8468 10.3994C12.5574 9.68872 13.5213 9.28947 14.5263 9.28947Z" fill="#E11923" stroke="#E11923" stroke-width="0.5" stroke-linecap="round" stroke-linejoin="round"/>
<path d="M8.21053 9.92105H5.68421V17.5H8.21053V9.92105Z" fill="#E11923" stroke="#E11923" stroke-width="0.5" stroke-linecap="round" stroke-linejoin="round"/>
<path d="M6.94737 8.02632C7.64499 8.02632 8.21053 7.46078 8.21053 6.76316C8.21053 6.06554 7.64499 5.5 6.94737 5.5C6.24975 5.5 5.68421 6.06554 5.68421 6.76316C5.68421 7.46078 6.24975 8.02632 6.94737 8.02632Z" fill="#E11923" stroke="#E11923" stroke-width="0.5" stroke-linecap="round" stroke-linejoin="round"/>
</svg>
