<svg width="24" height="24" viewBox="0 0 24 24" fill="none" xmlns="http://www.w3.org/2000/svg">
<rect width="24" height="24" rx="12" fill="#E11923"/>
<path d="M14.3895 9.40921C15.3401 9.40921 16.2517 9.78683 16.9239 10.459C17.5961 11.1312 17.9737 12.0428 17.9737 12.9934V17.175H15.5842V12.9934C15.5842 12.6766 15.4583 12.3727 15.2343 12.1486C15.0102 11.9246 14.7063 11.7987 14.3895 11.7987C14.0726 11.7987 13.7687 11.9246 13.5447 12.1486C13.3206 12.3727 13.1947 12.6766 13.1947 12.9934V17.175H10.8053V12.9934C10.8053 12.0428 11.1829 11.1312 11.8551 10.459C12.5272 9.78683 13.4389 9.40921 14.3895 9.40921Z" stroke="#FFFFF5" stroke-linecap="round" stroke-linejoin="round"/>
<path d="M8.41579 10.0066H6.02632V17.175H8.41579V10.0066Z" stroke="#FFFFF5" stroke-linecap="round" stroke-linejoin="round"/>
<path d="M7.22105 8.21447C7.88089 8.21447 8.41579 7.67957 8.41579 7.01974C8.41579 6.3599 7.88089 5.825 7.22105 5.825C6.56122 5.825 6.02632 6.3599 6.02632 7.01974C6.02632 7.67957 6.56122 8.21447 7.22105 8.21447Z" stroke="#FFFFF5" stroke-linecap="round" stroke-linejoin="round"/>
</svg>
