<svg xmlns="http://www.w3.org/2000/svg" version="1.1" xmlns:xlink="http://www.w3.org/1999/xlink" width="256" height="256"><svg xmlns="http://www.w3.org/2000/svg" version="1.1" xmlns:xlink="http://www.w3.org/1999/xlink" width="256" height="256"><svg width="256" height="256" viewBox="0 0 256 256" fill="none" xmlns="http://www.w3.org/2000/svg">
<g clip-path="url(#clip0_516_92)">
<circle cx="128" cy="128" r="128" fill="#B2141B"></circle>
<path d="M163.031 202.298C162.145 206.013 157.223 222.058 138.305 222.058H158.797H116.995L122.567 196.063C119.721 196.1 116.899 195.936 114.118 195.584L108.444 222.058H95.7949L95.1108 225.479H159.895L164.564 201.535H163.196L163.031 202.298Z" fill="#F6F9F6"></path>
<path d="M175.714 76.2978C175.714 76.2978 172.687 88.656 157.863 77.6694L157.883 77.6934C156.809 76.8656 155.711 76.0686 154.583 75.3195C151.874 73.5238 148.802 71.7999 145.84 70.4624C145.176 70.1443 144.239 69.7168 143.538 69.4705L141.198 68.5538C140.405 68.287 139.604 68.0407 138.807 67.7842C137.463 67.3669 136.119 67.0043 134.775 66.6794L133.523 72.5216C134.72 72.7713 136.167 73.062 137.176 73.3835L139.372 73.9992L141.527 74.7449C141.838 74.8543 142.149 74.9672 142.461 75.0801C155.404 79.9817 162.05 87.6504 165.463 94.2382C169.065 101.192 169.065 106.935 169.065 106.935H170.946L177.555 76.3012H175.714V76.2978Z" fill="#F6F9F6"></path>
<path d="M123.747 190.542C123.826 190.538 123.908 190.528 123.986 190.525C127.297 190.302 130.632 189.807 133.964 189.023H133.971C134.043 189.006 134.108 188.989 134.176 188.972C134.771 188.828 135.366 188.678 135.962 188.517C139.02 187.782 141.465 187.429 143.415 187.344C147.365 187.173 149.291 188.086 150.228 189.088C151.248 190.179 151.09 191.377 151.09 191.377H152.972L159.583 160.743H157.743C153.067 181.967 133.369 184.792 124.937 185.008L141.185 109.182H158.602L159.628 105.762H126.398L125.666 109.182H132.633L123.398 152.28H109.59L133.779 39.4078H157.548C174.514 40.8923 171.439 56.8728 170.902 59.1919L170.833 59.4758H172.202L176.901 37.6975L177.267 35.9873H83.2006L77.9604 59.9307H79.3286L79.5441 58.9593C80.5566 54.8889 85.636 39.4078 104.219 39.4078H125.225L119.752 64.9451C86.734 65.1675 58.0053 91.878 57.5572 127.16C57.482 135.763 59.0725 143.832 61.9697 151.145C70.7945 173.419 91.7997 188.657 115.21 190.48C118.025 190.699 120.877 190.727 123.747 190.545V190.542ZM67.569 111.792C74.3689 89.0151 95.0663 73.0038 118.346 71.4988L101.035 152.28H82.3284V155.701H126.795L121.561 160.832L116.424 184.806C106.368 183.756 96.5781 180.103 88.2287 173.86C79.5612 167.474 73.1068 158.902 69.2587 149.318C64.559 137.607 63.7517 124.386 67.5656 111.792H67.569Z" fill="#F6F9F6"></path>
</g>
<defs>
<clipPath id="clip0_516_92">
<rect width="256" height="256" fill="white"></rect>
</clipPath>
</defs>
</svg></svg><style>@media (prefers-color-scheme: light) { :root { filter: none; } }
@media (prefers-color-scheme: dark) { :root { filter: contrast(1) brightness(1.2); } }
</style></svg>