<svg xmlns="http://www.w3.org/2000/svg" version="1.1" xmlns:xlink="http://www.w3.org/1999/xlink" width="288" height="288"><svg xmlns="http://www.w3.org/2000/svg" version="1.1" xmlns:xlink="http://www.w3.org/1999/xlink" width="288" height="288"><svg width="288" height="288" viewBox="0 0 288 288" fill="none" xmlns="http://www.w3.org/2000/svg">
<circle cx="144" cy="144" r="144" fill="#B2141B"></circle>
<path d="M158.6 153.269C157.325 158.049 156.663 163.136 156.663 168.344C156.663 193.799 169.983 215.554 196.029 215.554C202.393 215.554 208.017 214.369 213.197 212.445L217.192 188.175H221.188L225.332 215.257C214.233 219.105 204.613 220.733 194.253 220.733C163.027 220.733 144.38 201.938 144.38 170.267C144.38 169.314 144.4 168.367 144.441 167.428L158.6 153.269Z" fill="#FFFFF5"></path>
<path d="M220.01 74.0894L74.6816 219.418L68.9526 213.689L214.281 68.3604L220.01 74.0894Z" fill="#FFFFF5"></path>
<path d="M150.651 98.293H146.508L138.22 72.5425H113.653V150.992L102.406 162.239V72.5425H77.9871L69.6997 98.293H65.5557L67.4797 67.2148H148.727L150.651 98.293Z" fill="#FFFFF5"></path>
<path d="M196.473 116.99C206.833 116.99 216.748 119.506 225.48 123.65L221.188 150.881H217.192L212.901 125.87C206.833 122.91 201.061 122.17 195.585 122.17C193.365 122.17 191.226 122.35 189.172 122.696L194.857 117.011C195.393 116.998 195.931 116.99 196.473 116.99Z" fill="#FFFFF5"></path>
</svg></svg><style>@media (prefers-color-scheme: light) { :root { filter: none; } }
@media (prefers-color-scheme: dark) { :root { filter: none; } }
</style></svg>