<svg width="720" height="720" viewBox="0 0 720 720" fill="none" xmlns="http://www.w3.org/2000/svg">
<path d="M458.256 119C482.389 143.133 495.76 173.952 498.372 205.494C529.18 198.229 562.626 201.421 593.038 216.917L716.524 279.837L653.605 403.324C638.111 433.733 612.932 455.974 583.741 468.205C600.168 495.258 607.465 528.05 602.126 561.759L580.445 698.646L443.559 676.965C409.85 671.626 380.917 654.552 360.264 630.569C339.611 654.551 310.679 671.624 276.971 676.963L140.085 698.644L118.404 561.757C113.066 528.05 120.36 495.259 136.784 468.207C107.593 455.976 82.4144 433.735 66.9199 403.325L4 279.838L127.487 216.918C157.895 201.425 191.335 198.231 222.14 205.492C224.752 173.95 238.124 143.133 262.257 119L360.256 21L458.256 119Z" fill="#C4272C"/>
</svg>
