<svg width="24" height="24" viewBox="0 0 24 24" fill="none" xmlns="http://www.w3.org/2000/svg">
<rect x="0.5" y="0.5" width="23" height="23" rx="11.5" fill="#FFF5F5"/>
<rect x="0.5" y="0.5" width="23" height="23" rx="11.5" stroke="#F9CDCF"/>
<path d="M12 19.5C16.1421 19.5 19.5 16.1421 19.5 12C19.5 7.85786 16.1421 4.5 12 4.5C7.85786 4.5 4.5 7.85786 4.5 12C4.5 16.1421 7.85786 19.5 12 19.5Z" fill="#F9CDCF" stroke="#E11923" stroke-width="1.5" stroke-linecap="round" stroke-linejoin="round"/>
<path d="M4.5 12H19.5" stroke="#E11923" stroke-width="1.5" stroke-linecap="round" stroke-linejoin="round"/>
<path d="M12 4.5C13.876 6.55376 14.9421 9.21903 15 12C14.9421 14.781 13.876 17.4462 12 19.5C10.124 17.4462 9.05794 14.781 9 12C9.05794 9.21903 10.124 6.55376 12 4.5Z" stroke="#E11923" stroke-width="1.5" stroke-linecap="round" stroke-linejoin="round"/>
</svg>
