<svg width="24" height="24" viewBox="0 0 24 24" fill="none" xmlns="http://www.w3.org/2000/svg">
<rect x="0.5" y="0.5" width="23" height="23" rx="11.5" fill="#FFF5F5"/>
<rect x="0.5" y="0.5" width="23" height="23" rx="11.5" stroke="#F9CDCF"/>
<path d="M19.1312 8.13734C19.0508 7.81623 18.8872 7.52203 18.6567 7.28444C18.4262 7.04684 18.1371 6.87428 17.8186 6.78417C16.6549 6.5 12 6.5 12 6.5C12 6.5 7.34511 6.5 6.18138 6.81123C5.86288 6.90134 5.57379 7.07391 5.34333 7.3115C5.11286 7.54909 4.94918 7.8433 4.86881 8.1644C4.65583 9.34541 4.55165 10.5435 4.55758 11.7435C4.54998 12.9526 4.65417 14.1598 4.86881 15.3497C4.95741 15.6609 5.12476 15.9439 5.35469 16.1714C5.58462 16.399 5.86935 16.5634 6.18138 16.6488C7.34511 16.96 12 16.96 12 16.96C12 16.96 16.6549 16.96 17.8186 16.6488C18.1371 16.5587 18.4262 16.3861 18.6567 16.1485C18.8872 15.9109 19.0508 15.6167 19.1312 15.2956C19.3425 14.1235 19.4467 12.9345 19.4424 11.7435C19.45 10.5344 19.3458 9.32724 19.1312 8.13734Z" fill="#E11923" stroke="#E11923" stroke-width="1.5" stroke-linecap="round" stroke-linejoin="round"/>
<path d="M10.2249 13.384C10.2249 13.7674 10.6387 14.0082 10.972 13.8186L13.8566 12.1782C14.1937 11.9865 14.1937 11.5006 13.8566 11.3089L10.972 9.66845C10.6387 9.47889 10.2249 9.71963 10.2249 10.1031V13.384Z" fill="#F9CDCF"/>
</svg>
