<svg width="300" height="300" viewBox="0 0 300 300" fill="none" xmlns="http://www.w3.org/2000/svg">
<path d="M69.9165 142.395C60.0272 142.395 52.0086 134.376 52.0086 124.487V97.5854C52.0086 87.6961 60.0272 79.6775 69.9165 79.6775C79.8058 79.6775 87.8244 87.6961 87.8244 97.5854V104.427H74.3957V97.5854C74.3957 95.1087 72.3845 93.1062 69.9165 93.1062C67.4398 93.1062 65.4373 95.1175 65.4373 97.5854V124.443C65.4373 126.92 67.4486 128.922 69.9165 128.922C72.3932 128.922 74.3957 126.911 74.3957 124.443V117.856H87.8244V124.487C87.8244 134.376 79.8058 142.395 69.9165 142.395Z" fill="#FFFFF5"/>
<path d="M128.313 140.638H114.884V118.708C114.884 117.267 113.716 116.099 112.275 116.099H105.917V140.638H92.4879V78H115.99C122.797 78 128.313 83.5155 128.313 90.3221V103.101C128.313 106.553 125.511 109.354 122.059 109.354C125.511 109.354 128.313 112.156 128.313 115.608V140.638ZM114.884 98.9643V95.179C114.884 93.1326 113.224 91.4727 111.178 91.4727H105.917V102.671H111.178C113.224 102.671 114.884 101.011 114.884 98.9643Z" fill="#FFFFF5"/>
<path d="M128.313 208.704H114.884V186.774C114.884 185.333 113.716 184.165 112.275 184.165H105.917V208.704H92.4879V146.066H115.99C122.797 146.066 128.313 151.581 128.313 158.388V171.167C128.313 174.619 125.511 177.42 122.059 177.42C125.511 177.42 128.313 180.222 128.313 183.674V208.704ZM114.884 167.03V163.245C114.884 161.199 113.224 159.539 111.178 159.539H105.917V170.737H111.178C113.224 170.737 114.884 169.077 114.884 167.03Z" fill="#FFFFF5"/>
<path d="M163.241 151.178H131.878V88.4514H163.241V101.88H145.307V113.078H160.606V126.507H145.307V137.705H163.241V151.178Z" fill="#FFFFF5"/>
<path d="M193.436 140.638L191.908 131.803H180.622L179.094 140.638H165.753L177.346 78.0439H195.237L206.874 140.638H193.436ZM189.589 118.33L186.261 98.9116L182.976 118.33H189.589Z" fill="#FFFFF5"/>
<path d="M244.456 93.1414H231.027V142.395H217.599V93.1414H204.126V79.6687H244.456V93.1414Z" fill="#FFFFF5"/>
<path d="M87.8247 200.747L78.8575 209.582H60.9671L52 200.747V155.955L60.9671 146.988H78.8575L87.8247 155.955V200.747ZM74.3959 196.242V160.417H65.4288V196.242H74.3959Z" fill="#FFFFF5"/>
<path d="M155.18 221L153.652 212.165H142.366L140.838 221H127.497L139.09 158.406H156.98L168.618 221H155.18ZM151.333 198.692L148.005 179.273L144.72 198.692H151.333Z" fill="#FFFFF5"/>
<path d="M248.004 210.847H217.563L208.596 201.88V157.088L217.563 148.121H235.454L244.421 157.088V197.374L239.959 201.88H248.004V210.847ZM230.992 197.374V161.55H222.025V197.374H230.992Z" fill="#FFFFF5"/>
<path d="M205.082 209.582H191.654V187.652C191.654 186.212 190.485 185.044 189.045 185.044H182.686V209.582H169.258V146.944H192.76C199.567 146.944 205.082 152.46 205.082 159.266V172.045C205.082 175.497 202.281 178.298 198.829 178.298C202.281 178.298 205.082 181.1 205.082 184.552V209.582ZM191.654 167.909V164.123C191.654 162.077 189.994 160.417 187.947 160.417H182.686V171.615H187.947C189.994 171.615 191.654 169.955 191.654 167.909Z" fill="#FFFFF5"/>
</svg>
