<svg width="431" height="140" viewBox="0 0 431 140" fill="none" xmlns="http://www.w3.org/2000/svg">
<path d="M148.199 92.6582H120.386V37.01H148.199V48.9235H132.295V58.8579H145.862V70.7714H132.295V80.7058H148.199V92.6582Z" fill="#FFFFF5"/>
<path d="M169.524 96.0476L168.169 88.2091H158.161L156.806 96.0476H144.975L155.256 40.5163H171.121L181.441 96.0476H169.524ZM166.113 76.2567L163.161 59.0293L160.248 76.2567H166.113Z" fill="#FFFFF5"/>
<path d="M209.315 43.9524H197.407V87.6481H185.498V43.9524H173.55V32H209.315V43.9524Z" fill="#FFFFF5"/>
<path d="M233.336 96.8657L225.384 104.704H209.518L201.566 96.8657V57.1281L209.518 49.1728H225.384L233.336 57.1281V96.8657ZM221.427 92.8685V61.0863H213.475V92.8685H221.427Z" fill="#FFFFF5"/>
<path d="M301.844 96.1878L300.489 88.3494H290.48L289.125 96.1878H277.294L287.575 40.6565H303.441L313.76 96.1878H301.844ZM298.433 76.397L295.481 59.1696L292.568 76.397H298.433Z" fill="#FFFFF5"/>
<path d="M383 108H356.005L348.053 100.045V60.3072L356.005 52.3519H371.87L379.822 60.3072V96.0476L375.866 100.045H383V108ZM367.914 96.0476V64.2653H359.962V96.0476H367.914Z" fill="#FFFFF5"/>
<path d="M63.8808 105.125C55.1109 105.125 48 98.0111 48 89.2376V65.3717C48 56.5983 55.1109 49.4845 63.8808 49.4845C72.6507 49.4845 79.7616 56.5983 79.7616 65.3717V71.4415H67.853V65.3717C67.853 63.1745 66.0694 61.398 63.8808 61.398C61.6844 61.398 59.9087 63.1823 59.9087 65.3717V89.1987C59.9087 91.3959 61.6922 93.1724 63.8808 93.1724C66.0772 93.1724 67.853 91.3882 67.853 89.1987V83.3549H79.7616V89.2376C79.7616 98.0111 72.6507 105.125 63.8808 105.125Z" fill="#FFFFF5"/>
<path d="M115.667 100.458H103.758V81.0018C103.758 79.724 102.722 78.6877 101.445 78.6877H95.8058V100.458H83.8972V44.8874H104.739C110.775 44.8874 115.667 49.7806 115.667 55.8191V67.156C115.667 70.2181 113.182 72.7037 110.121 72.7037C113.182 72.7037 115.667 75.1892 115.667 78.2514V100.458ZM103.758 63.4861V60.1279C103.758 58.3125 102.286 56.8398 100.471 56.8398H95.8058V66.7742H100.471C102.286 66.7742 103.758 65.3016 103.758 63.4861Z" fill="#FFFFF5"/>
<path d="M269.599 103.216H257.691V83.7601C257.691 82.4823 256.655 81.446 255.378 81.446H249.739V103.216H237.83V47.6457H258.672C264.708 47.6457 269.599 52.5389 269.599 58.5774V69.9143C269.599 72.9764 267.115 75.462 264.054 75.462C267.115 75.462 269.599 77.9475 269.599 81.0096V103.216ZM257.691 66.2444V62.8862C257.691 61.0708 256.219 59.5981 254.404 59.5981H249.739V69.5325H254.404C256.219 69.5325 257.691 68.0599 257.691 66.2444Z" fill="#FFFFF5"/>
<path d="M343.94 103.777H332.032V84.3211C332.032 83.0433 330.996 82.007 329.719 82.007H324.08V103.777H312.171V48.2067H333.013C339.049 48.2067 343.94 53.0998 343.94 59.1384V70.4753C343.94 73.5374 341.456 76.023 338.395 76.023C341.456 76.023 343.94 78.5085 343.94 81.5706V103.777ZM332.032 66.8054V63.4472C332.032 61.6317 330.56 60.1591 328.745 60.1591H324.08V70.0935H328.745C330.56 70.0935 332.032 68.6209 332.032 66.8054Z" fill="#FFFFF5"/>
</svg>
