<svg width="132" height="132" viewBox="0 0 132 132" fill="none" xmlns="http://www.w3.org/2000/svg">
<path d="M70.1249 123.75H90.7499L94.8749 115.5H98.9999V132H32.9999V115.5H37.1249L41.2499 123.75H61.8749V115.5H70.1249V123.75ZM70.1249 107.25H61.8749V90.668C63.2235 90.7211 64.598 90.75 65.9989 90.75C67.4003 90.75 68.7757 90.7211 70.1249 90.668V107.25ZM65.9989 39.0557C67.4054 39.0557 68.7808 39.0868 70.1249 39.1445V82.4111C68.7808 82.4688 67.4054 82.5 65.9989 82.5C64.593 82.5 63.2185 82.4688 61.8749 82.4111V39.1445C63.2185 39.0869 64.593 39.0557 65.9989 39.0557ZM123.75 16.5H119.625L115.5 8.25H70.1249V30.8877C68.7757 30.8346 67.4003 30.8057 65.9989 30.8057C64.5981 30.8057 63.2235 30.8346 61.8749 30.8877V8.25H16.4999L12.3749 16.5H8.24988V0H123.75V16.5Z" fill="#932125"/>
<path d="M32.9999 85.1504C33.3899 85.2903 33.7826 85.4295 34.1786 85.5664C36.5885 86.3993 38.9467 87.1168 41.2499 87.7314V99H98.9999L103.125 90.75H107.25V107.25H24.7499V103.125L32.9999 99V85.1504ZM41.2499 79.165C39.8164 78.7453 38.3573 78.2822 36.8739 77.7695C35.5433 77.3097 34.2526 76.83 32.9999 76.3359V47.8779C35.4707 46.5857 38.2167 45.3534 41.2499 44.252V79.165ZM49.4999 20.625L41.2499 24.75V35.5322C38.2842 36.485 35.537 37.5597 32.9999 38.707V24.75L24.7499 20.625V16.5H49.4999V20.625Z" fill="#932125"/>
<path d="M65.9998 24.751C87.2526 24.751 102.35 31.0652 112.237 37.5596L107.288 49.5H101.526L100.574 40.4062C92.1464 36.3107 80.7728 33.001 65.9998 33.001C46.2561 33.001 32.6056 38.9092 23.9441 44.6836C19.5964 47.5821 16.4793 50.4658 14.4714 52.5918C14.1231 52.9607 13.8088 53.3071 13.5271 53.626C13.8089 53.9448 14.123 54.2912 14.4714 54.6602C16.4793 56.7861 19.5963 59.6708 23.9441 62.5693C32.6056 68.3436 46.2562 74.251 65.9998 74.251C81.7994 74.2509 93.7102 70.4655 102.288 65.9814L101.526 57.749H107.288L112.237 69.6924C102.35 76.1868 87.2527 82.5009 65.9998 82.501C44.4936 82.501 29.2688 76.0341 19.3679 69.4336C14.4347 66.1448 10.8483 62.8408 8.47339 60.3262C7.2857 59.0686 6.39861 58.0057 5.79565 57.2383C5.4942 56.8546 5.26352 56.5429 5.10132 56.3184C5.02052 56.2065 4.95697 56.1157 4.90991 56.0479C4.88638 56.0139 4.86552 55.9862 4.85034 55.9639L4.83081 55.9355C4.82824 55.9317 4.82609 55.927 4.82397 55.9238L4.82104 55.9189C4.82494 55.9159 4.93773 55.8347 8.18921 53.667L4.81812 55.9141L3.29175 53.626L4.81812 51.3379L8.19604 53.5898C4.81786 51.3377 4.82104 51.333 4.82104 51.333L4.82397 51.3301C4.8261 51.3269 4.82821 51.3222 4.83081 51.3184L4.85034 51.29C4.86553 51.2677 4.88633 51.2381 4.90991 51.2041C4.95699 51.1362 5.02056 51.0454 5.10132 50.9336C5.26354 50.709 5.49415 50.3974 5.79565 50.0137C6.39862 49.2463 7.28575 48.1833 8.47339 46.9258C10.8483 44.4112 14.4349 41.1081 19.3679 37.8193C29.2688 31.2187 44.4935 24.751 65.9998 24.751Z" fill="#932125"/>
</svg>
