<svg width="132" height="132" viewBox="0 0 132 132" fill="none" xmlns="http://www.w3.org/2000/svg">
<path d="M74.6904 71.668C73.9111 74.5898 73.5068 77.6987 73.5068 80.8818C73.5069 96.4374 81.6461 109.732 97.5635 109.732C101.452 109.732 104.889 109.009 108.055 107.833L110.496 93.001H112.938L115.471 109.551C108.688 111.902 102.809 112.897 96.4785 112.897C77.3957 112.897 66.0001 101.412 66 82.0576C66 81.4741 66.0129 80.8949 66.0381 80.3203L74.6904 71.668ZM112.219 23.2812L23.4072 112.094L19.9062 108.592L108.718 19.7803L112.219 23.2812ZM69.833 38.0723H67.2998L62.2354 22.3359H47.2227V70.2773L40.3496 77.1504V22.3359H25.4268L20.3623 38.0723H17.8291L19.0049 19.0801H68.6572L69.833 38.0723ZM97.835 49.499C104.166 49.499 110.226 51.036 115.562 53.5684L112.938 70.21H110.496L107.874 54.9258C104.166 53.117 100.638 52.6641 97.292 52.6641C95.9344 52.6641 94.6272 52.775 93.3721 52.9863L96.8457 49.5127C97.1735 49.5043 97.5032 49.499 97.835 49.499Z" fill="currentColor"/>
</svg>
